<svg width="32" height="32" viewBox="0 0 32 32" fill="none" xmlns="http://www.w3.org/2000/svg">
<rect width="32" height="32" rx="16" fill="#F6F6F6"/>
<path fill-rule="evenodd" clip-rule="evenodd" d="M9.22052 9.82258C8.93535 9.8725 8.72729 10.1202 8.72729 10.4097V23.5289C8.72729 23.8581 8.99412 24.1249 9.32325 24.1249H18.8586L18.8617 24.1249H23.6263L23.6307 24.1249H24.2222C24.5514 24.1249 24.8182 23.8581 24.8182 23.5289V15.4908C24.8182 15.2983 24.7253 15.1176 24.5686 15.0057L21.5888 12.8769C21.1944 12.5952 20.6465 12.8772 20.6465 13.362V21.7407H19.4546V8.74075C19.4546 8.37047 19.1206 8.08978 18.7559 8.15361L9.22052 9.82258ZM12.3031 13.0978C11.9739 13.0978 11.7071 13.3647 11.7071 13.6939C11.7071 14.0231 11.9739 14.2899 12.3031 14.2899H15.8788C16.2079 14.2899 16.4748 14.0231 16.4748 13.6939C16.4748 13.3647 16.2079 13.0978 15.8788 13.0978H12.3031ZM12.3031 16.0781C11.9739 16.0781 11.7071 16.345 11.7071 16.6742C11.7071 17.0034 11.9739 17.2702 12.3031 17.2702H15.8788C16.2079 17.2702 16.4748 17.0034 16.4748 16.6742C16.4748 16.345 16.2079 16.0781 15.8788 16.0781H12.3031ZM11.7071 19.6545C11.7071 19.3253 11.9739 19.0584 12.3031 19.0584H15.8788C16.2079 19.0584 16.4748 19.3253 16.4748 19.6545C16.4748 19.9837 16.2079 20.2505 15.8788 20.2505H12.3031C11.9739 20.2505 11.7071 19.9837 11.7071 19.6545Z" fill="black" fill-opacity="0.08"/>
</svg>
